<svg id="akquinet-logo-2016" xmlns="http://www.w3.org/2000/svg" width="108" height="33" viewBox="0 0 108 33">
  <path id="Pfad_1" data-name="Pfad 1" d="M72.634,11.66v2.3H71.168v1.928h1.466v4.8a4.066,4.066,0,0,0,.8,2.849,2.985,2.985,0,0,0,2.222.838,6.172,6.172,0,0,0,1.948-.267v-1.97a4.83,4.83,0,0,1-1.131.142c-.985,0-1.32-.649-1.32-1.886v-4.5H77.6V13.965H75.149V11.053Zm-9.186,6.328a2.521,2.521,0,0,1,2.368-2.493,2.194,2.194,0,0,1,2.117,2.493Zm6.83,1.8a6.307,6.307,0,0,0,.084-1.09c0-2.242-1.09-4.966-4.4-4.966-3.268,0-4.986,2.661-4.986,5.49,0,3.122,1.949,5.154,5.259,5.154A9.613,9.613,0,0,0,69.8,23.75l-.377-1.781a7.67,7.67,0,0,1-2.828.461c-1.634,0-3.08-.8-3.143-2.64ZM50.156,24.169h2.6V18.177a2.631,2.631,0,0,1,.1-.838A2.163,2.163,0,0,1,54.87,15.83c1.4,0,1.949,1.11,1.949,2.577v5.762H59.4V18.114c0-3.227-1.844-4.379-3.625-4.379a3.68,3.68,0,0,0-3.248,1.76h-.063l-.125-1.53H50.072c.063.88.084,1.865.084,3.038ZM46.632,9.712a1.377,1.377,0,0,0-1.446,1.4,1.447,1.447,0,0,0,2.892,0,1.376,1.376,0,0,0-1.446-1.4m1.3,4.253h-2.6v10.2h2.6Zm-4.843,0H40.511v6.16a2.348,2.348,0,0,1-.146.8,2.173,2.173,0,0,1-1.97,1.383c-1.362,0-1.907-1.09-1.907-2.787V13.965H33.911v5.993c0,3.331,1.7,4.442,3.562,4.442a3.69,3.69,0,0,0,3.269-1.781h.042l.125,1.55h2.263c-.042-.838-.083-1.844-.083-3.059ZM29.309,19.874a2.637,2.637,0,0,1-.125.8,2.259,2.259,0,0,1-2.2,1.7c-1.635,0-2.535-1.4-2.535-3.268,0-1.928.943-3.332,2.6-3.332a2.257,2.257,0,0,1,2.2,1.781,3.021,3.021,0,0,1,.063.628Zm0,8.5h2.577V16.92c0-1.069.042-2.032.084-2.955H29.477l-.063,1.362-.042-.021A3.212,3.212,0,0,0,26.4,13.735c-2.179,0-4.568,1.76-4.568,5.49,0,3.185,1.99,5.175,4.274,5.175a3.531,3.531,0,0,0,3.164-1.634h.042ZM14.849,9.685H12.271l.011,14.484h2.577V20.691l.88-1.027,2.933,4.5h3.164L17.52,18.135l3.772-4.17h-3.1l-2.472,3.289c-.272.357-.566.8-.817,1.194h-.042ZM7.48,19.874a2.638,2.638,0,0,1-.126.8,2.259,2.259,0,0,1-2.2,1.7c-1.634,0-2.535-1.4-2.535-3.268,0-1.928.943-3.332,2.6-3.332a2.257,2.257,0,0,1,2.2,1.781,3.034,3.034,0,0,1,.063.628Zm0,4.3h2.577V16.92c0-1.069.042-2.032.084-2.955H7.648l-.063,1.362-.042-.021a3.212,3.212,0,0,0-2.975-1.571C2.389,13.735,0,15.495,0,19.224,0,22.409,1.99,24.4,4.274,24.4a3.531,3.531,0,0,0,3.163-1.634H7.48Z" transform="translate(0 -3.874)" fill="#636362"/>
  <path id="Pfad_2" data-name="Pfad 2" d="M154.384,17.6h14.08a6.989,6.989,0,0,0-.416-1.486A9.024,9.024,0,0,0,166.822,14h-12A15.74,15.74,0,0,1,154.384,17.6Z" transform="translate(-60.548 -5.6)" fill="#05806e"/>
  <path id="Pfad_3" data-name="Pfad 3" d="M151.671,24.6h15.182a8.278,8.278,0,0,0,.6-3.6H153.141a17.67,17.67,0,0,1-1.471,3.6Z" transform="translate(-59.463 -8.4)" fill="#17518e"/>
  <path id="Pfad_4" data-name="Pfad 4" d="M154.541,8.5a15.619,15.619,0,0,1,.209,2.1h11.51q-.4-.458-.861-.892A22.272,22.272,0,0,0,161.822,7h-7.609C154.339,7.47,154.451,7.973,154.541,8.5Z" transform="translate(-60.48 -2.8)" fill="#32a546"/>
  <path id="Pfad_5" data-name="Pfad 5" d="M159.589,3.6a40.2,40.2,0,0,0-4.737-2.274C153.6.818,152.44.4,151.154,0a13.705,13.705,0,0,1,1.66,3.6Z" transform="translate(-59.257)" fill="#a8c324"/>
  <path id="Pfad_6" data-name="Pfad 6" d="M134.519,42a52.275,52.275,0,0,1-5.453,3.6h10.188q.9-.294,1.811-.612A56.524,56.524,0,0,0,148.146,42Z" transform="translate(-50.421 -16.8)" fill="#f3920f"/>
  <path id="Pfad_7" data-name="Pfad 7" d="M122.339,49c-.677.373-1.331.719-1.953,1.035-3.2,1.629-5.481,2.565-5.481,2.565A112.612,112.612,0,0,0,131.667,49Z" transform="translate(-45.039 -19.6)" fill="#fc0"/>
  <path id="Pfad_8" data-name="Pfad 8" d="M149.382,28a24.363,24.363,0,0,1-2.591,3.6h15.332a12.491,12.491,0,0,0,2.5-3.546L164.65,28Z" transform="translate(-57.511 -11.2)" fill="#c13b70"/>
  <path id="Pfad_9" data-name="Pfad 9" d="M143.318,35a32.27,32.27,0,0,1-3.132,2.991q-.37.31-.747.609H153.42q.872-.483,1.663-.981A23.764,23.764,0,0,0,158.563,35Z" transform="translate(-54.571 -14)" fill="#e7324c"/>
</svg>
